<?xml version="1.0" encoding="utf-8"?>
<!-- Generator: Adobe Illustrator 25.2.3, SVG Export Plug-In . SVG Version: 6.00 Build 0)  -->
<svg version="1.1" id="Layer_1" xmlns="http://www.w3.org/2000/svg" xmlns:xlink="http://www.w3.org/1999/xlink" x="0px" y="0px"
	 viewBox="0 0 22.7 22.7" style="enable-background:new 0 0 22.7 22.7;" xml:space="preserve">
<style type="text/css">
	.st0{fill:#3C3C3B;}
	.st1{clip-path:url(#SVGID_2_);}
	.st2{clip-path:url(#SVGID_4_);fill-rule:evenodd;clip-rule:evenodd;fill:#FFFFFF;}
</style>
<circle class="st0" cx="11.3" cy="11.3" r="11.1"/>
<g id="Artwork_292_1_">
	<g>
		<defs>
			<rect id="SVGID_1_" x="6.9" y="5.2" width="8.9" height="12.3"/>
		</defs>
		<clipPath id="SVGID_2_">
			<use xlink:href="#SVGID_1_"  style="overflow:visible;"/>
		</clipPath>
		<g class="st1">
			<defs>
				<rect id="SVGID_3_" x="6.9" y="5.2" width="8.9" height="12.3"/>
			</defs>
			<clipPath id="SVGID_4_">
				<use xlink:href="#SVGID_3_"  style="overflow:visible;"/>
			</clipPath>
			<path class="st2" d="M11.3,7.5c1.2,0,2.1,1,2.1,2.1s-1,2.1-2.1,2.1s-2.1-1-2.1-2.1S10.2,7.5,11.3,7.5 M11.3,5.2
				c2.5,0,4.5,2,4.5,4.5c0,0.1,0,0.2,0,0.3l0,0l0,0.1l0,0c-0.2,2.9-2.9,5.6-4.6,7.5c-1.5-1.8-3.5-4.4-4.1-6.6
				c-0.1-0.4-0.2-0.8-0.2-1.2C6.9,7.2,8.9,5.2,11.3,5.2"/>
		</g>
	</g>
</g>
</svg>
