<?xml version="1.0" encoding="utf-8"?>
<!-- Generator: Adobe Illustrator 25.2.3, SVG Export Plug-In . SVG Version: 6.00 Build 0)  -->
<svg version="1.1" id="Layer_1" xmlns="http://www.w3.org/2000/svg" xmlns:xlink="http://www.w3.org/1999/xlink" x="0px" y="0px"
	 viewBox="0 0 25 25" style="enable-background:new 0 0 25 25;" xml:space="preserve">
<style type="text/css">
	.st0{fill:#FBBA00;}
</style>
<desc>Created using Figma</desc>
<g id="Canvas" transform="translate(-4909 -2758)">
	<g id="noun_376938_cc">
		<g id="Group_2_">
			<g id="Group_1_">
				<g id="Group">
					<g id="Vector">
						<g transform="translate(4909 2758)">
							<path id="path0_fill" class="st0" d="M4921.5,2758c-3.3,0-6.5,1.3-8.8,3.7s-3.7,5.5-3.7,8.8s1.3,6.5,3.7,8.8
								c2.3,2.3,5.5,3.7,8.8,3.7s6.5-1.3,8.8-3.7c2.3-2.3,3.7-5.5,3.7-8.8s-1.3-6.5-3.7-8.8S4924.8,2758,4921.5,2758L4921.5,2758z
								 M4921.5,2764c2.8,0,5,2.2,5,5c0,3.8-3.6,7.4-4.6,8.4l-0.4,0.4l-0.4-0.4c-1-1-4.6-4.5-4.6-8.4
								C4916.5,2766.2,4918.7,2764,4921.5,2764z M4921.5,2765c-2.2,0-4,1.8-4,4c0,2.9,2.8,6,4,7.2c1.2-1.2,4-4.3,4-7.2
								C4925.5,2766.8,4923.7,2765,4921.5,2765z M4921.5,2767c1.1,0,2,0.9,2,2s-0.9,2-2,2s-2-0.9-2-2S4920.4,2767,4921.5,2767z
								 M4921.5,2768c-0.6,0-1,0.4-1,1c0,0.6,0.4,1,1,1s1-0.4,1-1C4922.5,2768.4,4922.1,2768,4921.5,2768z"/>
						</g>
					</g>
				</g>
			</g>
		</g>
	</g>
</g>
</svg>
