<?xml version="1.0" encoding="utf-8"?>
<!-- Generator: Adobe Illustrator 25.2.3, SVG Export Plug-In . SVG Version: 6.00 Build 0)  -->
<svg version="1.1" id="Layer_1" xmlns="http://www.w3.org/2000/svg" xmlns:xlink="http://www.w3.org/1999/xlink" x="0px" y="0px"
	 viewBox="0 0 22.7 22.7" style="enable-background:new 0 0 22.7 22.7;" xml:space="preserve">
<style type="text/css">
	.st0{fill:#3C3C3B;}
	.st1{clip-path:url(#SVGID_2_);}
	.st2{clip-path:url(#SVGID_4_);fill-rule:evenodd;clip-rule:evenodd;fill:#FFFFFF;}
</style>
<circle class="st0" cx="11.3" cy="11.3" r="11.1"/>
<g id="Artwork_294_1_">
	<g>
		<defs>
			<rect id="SVGID_1_" x="6" y="4.7" width="10.8" height="13.2"/>
		</defs>
		<clipPath id="SVGID_2_">
			<use xlink:href="#SVGID_1_"  style="overflow:visible;"/>
		</clipPath>
		<g class="st1">
			<defs>
				<rect id="SVGID_3_" x="6" y="4.7" width="10.8" height="13.2"/>
			</defs>
			<clipPath id="SVGID_4_">
				<use xlink:href="#SVGID_3_"  style="overflow:visible;"/>
			</clipPath>
			<path class="st2" d="M10.3,8.1C10.1,6.5,10,5.6,10,5.4C9.9,4.6,8.3,4.7,7.7,4.9c-2.6,1.2-1.8,4.7-0.9,6.7c1.8,3.4,3.7,5.4,5.9,6
				c1.7,0.6,3.9,0.2,4-1.9c0-0.3,0-0.5-0.1-0.7c-0.1-0.3-1.1-0.8-2.8-1.5c-0.3-0.1-0.7,0-1.2,0.4c-0.1,0.1-0.1,0.1-0.2,0.2
				c-0.3,0.2-0.5,0.2-0.8,0c-0.9-0.7-2.4-3.3-2.7-4C8.8,9.8,9,9.6,9.3,9.4C10,9.1,10.3,8.7,10.3,8.1"/>
		</g>
	</g>
</g>
</svg>
