<?xml version="1.0" encoding="utf-8"?>
<!-- Generator: Adobe Illustrator 25.2.3, SVG Export Plug-In . SVG Version: 6.00 Build 0)  -->
<svg version="1.1" id="Layer_1" xmlns="http://www.w3.org/2000/svg" xmlns:xlink="http://www.w3.org/1999/xlink" x="0px" y="0px"
	 viewBox="0 0 22.7 22.7" style="enable-background:new 0 0 22.7 22.7;" xml:space="preserve">
<style type="text/css">
	.st0{fill:#3C3C3B;}
	.st1{fill:#FFFFFF;}
</style>
<circle class="st0" cx="11.3" cy="11.3" r="11.1"/>
<path class="st1" d="M16.8,5.9c-1.4-1.4-3.4-2.2-5.4-2.2s-4,0.8-5.4,2.2c-1.4,1.4-2.2,3.4-2.2,5.4c0,2,0.8,4,2.2,5.4
	c1.4,1.4,3.4,2.2,5.4,2.2c2,0,4-0.8,5.4-2.2c1.4-1.4,2.2-3.4,2.2-5.4C19,9.3,18.2,7.4,16.8,5.9z M6.1,7.1c0.1-0.2,0.3-0.3,0.5-0.5
	C7.2,6,7.9,5.5,8.7,5.2l0.1-0.1L8.7,5.2C8.6,5.5,8.4,5.8,8.2,6.1C8,6.5,7.8,6.9,7.7,7.4l0,0l0,0C7.1,7.3,6.7,7.3,6.1,7.1L6.1,7.1
	L6.1,7.1z M4.7,10.8C4.7,9.9,5,8.9,5.5,8l0,0l0,0c0.6,0.1,1.2,0.2,1.8,0.3l0,0l0,0C7.2,9.2,7.1,10,7.1,10.8l0,0L4.7,10.8L4.7,10.8z
	 M5.6,14.7L5.6,14.7L5.6,14.7c-0.6-0.9-0.9-1.9-0.9-2.9l0,0h2.4l0,0c0,0.8,0.1,1.7,0.3,2.5l0,0l0,0C6.8,14.5,6.2,14.6,5.6,14.7z
	 M8.7,17.5c-0.8-0.3-1.5-0.8-2.1-1.4c-0.2-0.2-0.3-0.3-0.4-0.5l0-0.1l0.1,0c0.5-0.1,1-0.2,1.4-0.3l0,0l0,0c0.2,0.5,0.3,0.9,0.6,1.3
	C8.4,16.9,8.6,17.2,8.7,17.5l0.1,0.1L8.7,17.5z M10.9,18L10.9,18c-0.9-0.3-1.5-1.1-1.9-1.8c-0.2-0.3-0.3-0.7-0.4-1l0,0l0.1,0
	c0.7-0.1,1.5-0.1,2.2-0.2l0,0V18z M10.9,14.1L10.9,14.1c-0.9,0-1.7,0.1-2.6,0.2l0,0l0,0C8.1,13.5,8,12.7,8,11.9l0,0h2.9V14.1z
	 M10.9,10.9H8l0,0C8,10,8.1,9.2,8.3,8.5l0,0l0,0c0.8,0.1,1.7,0.1,2.5,0.2l0,0V10.9z M10.9,7.7L10.9,7.7c-0.8,0-1.5-0.1-2.3-0.1
	l-0.1,0l0,0c0.1-0.3,0.3-0.7,0.4-1c0.4-0.7,1-1.5,1.8-1.8l0.1,0V7.7z M17.1,8L17.1,8L17.1,8c0.5,0.9,0.8,1.8,0.9,2.8l0,0h-2.4l0,0
	c0-0.8-0.1-1.7-0.3-2.5l0,0l0,0C15.9,8.2,16.5,8.1,17.1,8z M14,5.2c0.8,0.3,1.5,0.8,2.1,1.4c0.2,0.2,0.3,0.3,0.5,0.5l0,0.1l-0.1,0
	c-0.5,0.1-1,0.2-1.5,0.2l0,0l0,0c-0.2-0.5-0.3-0.9-0.6-1.3C14.3,5.8,14.1,5.5,14,5.2l-0.1-0.1L14,5.2z M11.9,4.7L11.9,4.7
	c0.8,0.3,1.4,1.1,1.8,1.8c0.2,0.3,0.3,0.7,0.4,1l0,0l-0.1,0c-0.7,0.1-1.4,0.1-2.1,0.1l0,0V4.7z M11.9,8.6L11.9,8.6
	c0.9,0,1.7-0.1,2.5-0.1l0,0l0,0c0.2,0.8,0.3,1.6,0.3,2.4l0,0h-2.8V8.6z M11.9,11.8h2.8l0,0c0,0.8-0.1,1.6-0.3,2.4l0,0l0,0
	c-0.8-0.1-1.6-0.2-2.4-0.2l0,0V11.8z M11.9,18L11.9,18l-0.1-3l0,0c0.7,0,1.4,0.1,2.1,0.1l0.1,0l0,0c-0.1,0.3-0.3,0.7-0.4,1
	C13.3,16.9,12.7,17.7,11.9,18z M16.5,15.6c-0.1,0.2-0.3,0.3-0.4,0.5c-0.6,0.6-1.3,1.1-2.1,1.4l-0.1,0.1l0.1-0.1
	c0.2-0.3,0.4-0.5,0.5-0.8c0.2-0.4,0.4-0.9,0.6-1.3l0,0l0,0C15.6,15.4,16,15.4,16.5,15.6L16.5,15.6L16.5,15.6z M18,11.9
	c-0.1,1-0.4,2-0.9,2.9l0,0l0,0c-0.6-0.1-1.2-0.3-1.8-0.4l0,0l0,0c0.2-0.8,0.3-1.6,0.3-2.5l0,0L18,11.9L18,11.9z"/>
</svg>
